<?xml version="1.0" encoding="UTF-8" standalone="no"?>
<!-- Created with Inkscape (http://www.inkscape.org/) -->

<svg
   width="100mm"
   height="100mm"
   viewBox="0 0 377.95276 377.95277"
   version="1.1"
   id="svg1"
   inkscape:version="1.4.3 (0d15f75, 2025-12-25)"
   sodipodi:docname="偏极继电器（两线圈分接）.svg"
   xmlns:inkscape="http://www.inkscape.org/namespaces/inkscape"
   xmlns:sodipodi="http://sodipodi.sourceforge.net/DTD/sodipodi-0.dtd"
   xmlns="http://www.w3.org/2000/svg"
   xmlns:svg="http://www.w3.org/2000/svg"
   xmlns:rdf="http://www.w3.org/1999/02/22-rdf-syntax-ns#"
   xmlns:cc="http://creativecommons.org/ns#"
   xmlns:dc="http://purl.org/dc/elements/1.1/">
  <sodipodi:namedview
     id="namedview1"
     pagecolor="#ffffff"
     bordercolor="#000000"
     borderopacity="0.25"
     inkscape:showpageshadow="2"
     inkscape:pageopacity="0.0"
     inkscape:pagecheckerboard="0"
     inkscape:deskcolor="#d1d1d1"
     inkscape:document-units="mm"
     inkscape:zoom="1.6239296"
     inkscape:cx="165.95546"
     inkscape:cy="148.40544"
     inkscape:window-width="1920"
     inkscape:window-height="1112"
     inkscape:window-x="-8"
     inkscape:window-y="-8"
     inkscape:window-maximized="1"
     inkscape:current-layer="g9"
     showguides="true" />
  <defs
     id="defs1" />
  <g
     inkscape:groupmode="layer"
     inkscape:label="直流无极继电器（两线圈串接）"
     id="g9"
     style="display:inline"
     transform="matrix(5.0000266,0,0,5.0000266,-40981.468,17437.074)">
    <path
       d="m 8250.5084,-3449.6012 a 16.463305,16.463305 0 0 0 -32.9266,0 16.463305,16.463305 0 0 0 32.9266,0 z"
       style="fill:none;stroke:#000000;stroke-width:1.13385225;stroke-dasharray:none"
       id="path8" />
    <path
       style="fill:none;stroke:#000000;stroke-width:1.13385;stroke-dasharray:none;stroke-opacity:1"
       d="m 8250.5084,-3449.5867 -32.9266,-0.029"
       id="path1" />
    <path
       style="fill:#000000;fill-opacity:1;stroke:#000000;stroke-width:1.13385225;stroke-dasharray:none;stroke-opacity:1"
       d="m 8218.9905,-3456.2517 h -22.741"
       id="path10" />
    <path
       style="fill:#000000;fill-opacity:1;stroke:#000000;stroke-width:1.13385225;stroke-dasharray:none;stroke-opacity:1"
       d="m 8249.1728,-3456.2517 h 22.6669"
       id="path11" />
    <path
       style="display:inline;fill:#000000;fill-opacity:1;stroke:#000000;stroke-width:1.13385225;stroke-dasharray:none;stroke-opacity:1"
       d="m 8218.9174,-3443.1185 h -22.6679"
       id="path10-6" />
    <path
       style="display:inline;fill:#000000;fill-opacity:1;stroke:#000000;stroke-width:1.13385225;stroke-dasharray:none;stroke-opacity:1"
       d="m 8249.1728,-3443.1185 h 22.6669"
       id="path11-8" />
    <path
       style="fill:none;fill-opacity:1;stroke:#000000;stroke-width:1.13385;stroke-dasharray:none;stroke-opacity:1"
       d="m 8234.0451,-3449.6011 12.2518,-10.9842"
       id="path13" />
    <path
       d="m 8252.1035,-3458.7834 h 0.48 v -3.7014 h -0.3147 l -1.0827,0.224 v 0.3894 l 0.9174,-0.176 z"
       id="text13"
       style="font-size:5.33331px;font-family:'Alibaba PuHuiTi 3.0';-inkscape-font-specification:'Alibaba PuHuiTi 3.0, ';stroke-width:0.453541"
       aria-label="1" />
    <path
       d="m 8213.0442,-3458.7302 h 2.4374 v -0.4054 h -1.9094 v -0.048 l 0.2134,-0.1653 c 1.1946,-0.9547 1.5466,-1.408 1.5466,-2.0746 0,-0.7574 -0.464,-1.0614 -1.1893,-1.0614 -0.3147,0 -0.592,0.027 -0.8427,0.085 v 0.4106 c 0.2934,-0.08 0.5547,-0.096 0.7894,-0.096 0.3626,0 0.784,0.1227 0.784,0.656 0,0.528 -0.256,0.96 -1.8294,2.192 z"
       id="text14"
       style="font-size:5.33331px;font-family:'Alibaba PuHuiTi 3.0';-inkscape-font-specification:'Alibaba PuHuiTi 3.0, ';stroke-width:0.453541"
       aria-label="2" />
    <path
       d="m 8251.5891,-3436.4371 c 0.9813,0 1.424,-0.3894 1.424,-1.072 0,-0.4907 -0.224,-0.8 -0.752,-0.8907 v -0.032 c 0.4053,-0.1227 0.656,-0.3573 0.656,-0.8427 0,-0.6826 -0.416,-0.9706 -1.2107,-0.9706 -0.2826,0 -0.5866,0.048 -0.7733,0.1066 v 0.3947 c 0.2347,-0.069 0.5387,-0.1067 0.752,-0.1067 0.5333,0 0.7893,0.1707 0.7893,0.6027 0,0.4053 -0.3413,0.6613 -0.9866,0.6613 h -0.288 v 0.368 h 0.2933 c 0.704,0 1.0613,0.176 1.0613,0.704 0,0.5174 -0.416,0.6774 -0.9706,0.6774 -0.2827,0 -0.544,-0.021 -0.8267,-0.091 v 0.4213 c 0.2507,0.048 0.5334,0.069 0.832,0.069 z"
       id="text15"
       style="font-size:5.33331px;font-family:'Alibaba PuHuiTi 3.0';-inkscape-font-specification:'Alibaba PuHuiTi 3.0, ';stroke-width:0.453541"
       aria-label="3" />
    <path
       d="m 8215.5801,-3438.3198 h -0.4373 v -2.384 h -0.576 l -1.6213,2.272 v 0.5174 h 1.7493 v 0.912 h 0.448 v -0.912 h 0.4373 z m -2.2293,0 v -0.032 l 1.312,-1.8613 h 0.032 v 1.8933 z"
       id="text16"
       style="font-size:5.33331px;font-family:'Alibaba PuHuiTi 3.0';-inkscape-font-specification:'Alibaba PuHuiTi 3.0, ';stroke-width:0.453541"
       aria-label="4" />
  </g>
  <metadata
     id="metadata1">
    <rdf:RDF>
      <cc:Work
         rdf:about="">
        <cc:license
           rdf:resource="http://creativecommons.org/licenses/by-sa/4.0/" />
        <dc:creator>
          <cc:Agent>
            <dc:title>大头烧三月</dc:title>
          </cc:Agent>
        </dc:creator>
      </cc:Work>
      <cc:License
         rdf:about="http://creativecommons.org/licenses/by-sa/4.0/">
        <cc:permits
           rdf:resource="http://creativecommons.org/ns#Reproduction" />
        <cc:permits
           rdf:resource="http://creativecommons.org/ns#Distribution" />
        <cc:requires
           rdf:resource="http://creativecommons.org/ns#Notice" />
        <cc:requires
           rdf:resource="http://creativecommons.org/ns#Attribution" />
        <cc:permits
           rdf:resource="http://creativecommons.org/ns#DerivativeWorks" />
        <cc:requires
           rdf:resource="http://creativecommons.org/ns#ShareAlike" />
      </cc:License>
    </rdf:RDF>
  </metadata>
</svg>
